<svg width="28" height="38" viewBox="0 0 28 38" fill="none" xmlns="http://www.w3.org/2000/svg">
<path d="M24.9813 11.1773C25.8927 10.2496 25.8927 8.74292 24.9813 7.81519C24.0698 6.88745 22.5896 6.88745 21.6781 7.81519L14 15.6378L6.3146 7.82261C5.40314 6.89487 3.92293 6.89487 3.01147 7.82261C2.10002 8.75034 2.10002 10.257 3.01147 11.1847L10.6969 18.9999L3.01877 26.8226C2.10731 27.7503 2.10731 29.257 3.01877 30.1847C3.93022 31.1124 5.41043 31.1124 6.32189 30.1847L14 22.3621L21.6854 30.1773C22.5969 31.105 24.0771 31.105 24.9886 30.1773C25.9 29.2496 25.9 27.7429 24.9886 26.8152L17.3031 18.9999L24.9813 11.1773Z" fill="#71726C"/>
</svg>
