<svg width="28" height="32" viewBox="0 0 28 32" fill="none" xmlns="http://www.w3.org/2000/svg">
<g clip-path="url(#clip0_178_4)">
<path d="M0.587524 14.5875C-0.193726 15.3688 -0.193726 16.6375 0.587524 17.4188L10.5875 27.4188C11.3688 28.2001 12.6375 28.2001 13.4188 27.4188C14.2 26.6376 14.2 25.3688 13.4188 24.5875L6.82502 18H26C27.1063 18 28 17.1063 28 16C28 14.8938 27.1063 14 26 14H6.83127L13.4125 7.41255C14.1938 6.6313 14.1938 5.36255 13.4125 4.5813C12.6313 3.80005 11.3625 3.80005 10.5813 4.5813L0.581274 14.5813L0.587524 14.5875Z" fill="#71726C"/>
</g>
<defs>
<clipPath id="clip0_178_4">
<rect width="28" height="32" fill="white"/>
</clipPath>
</defs>
</svg>
